<svg xmlns="http://www.w3.org/2000/svg" fill-rule="evenodd" viewBox="0 0 100 100">
    <path d="M90.298 49.014c2.29-1.474 3.795-3.915 3.795-6.676 0-4.478-3.971-8.12-8.852-8.12H61.655c1.115-2.09 2.244-5.515 1.986-10.615-.507-10.455-6.851-15.879-10.52-17.436-2.164-.918-4.519-.7-6.298.583-1.786 1.288-3.802 4.246-3.263 11.026.558 7.046-8.411 14.689-12.781 17.973v-2.682a1.5 1.5 0 0 0-1.5-1.5H9.416a1.5 1.5 0 0 0-1.5 1.5v54.182a1.5 1.5 0 0 0 1.5 1.5h19.863a1.5 1.5 0 0 0 1.5-1.5v-2.737c5.654 2.033 21.553 7.511 29.41 7.768l15.777.11c4.875 0 8.841-3.805 8.841-8.481 0-2.153-.844-4.115-2.223-5.614 4.208-.655 7.434-4.148 7.434-8.359 0-2.243-.921-4.28-2.411-5.798 3.735-.996 6.487-4.278 6.487-8.172-.001-2.876-1.505-5.418-3.796-6.952zM10.916 85.748V34.566h16.863v4.02c-.002.04-.001.08 0 .12V82.34c-.001.041-.003.082 0 .123v3.286H10.916zm74.325-24.294h-7.689l-.01.001h-1.576a1.5 1.5 0 0 0 0 3h5.195c3.229 0 5.856 2.459 5.856 5.48 0 3.021-2.627 5.479-5.856 5.479h-5.175l-.02-.001h-5.514a1.5 1.5 0 0 0 0 3h5.504l.01.001h.02c3.211.011 5.82 2.47 5.82 5.494 0 3.022-2.62 5.481-5.83 5.481l-15.728-.109c-7.822-.257-25.169-6.397-29.469-7.961V39.456c3.249-2.235 16.556-12.025 15.771-21.917-.334-4.205.386-7.172 2.027-8.355 1.365-.983 2.926-.442 3.373-.254 3.024 1.284 8.26 5.85 8.695 14.823.395 7.798-2.763 10.715-2.884 10.823a1.5 1.5 0 0 0 .971 2.643H85.24c3.227 0 5.852 2.297 5.852 5.12 0 2.837-2.625 5.146-5.852 5.146h-6.413a1.5 1.5 0 1 0 0 3h6.413c3.227 0 5.852 2.458 5.852 5.481.001 3.025-2.624 5.488-5.851 5.488z"/>
</svg>
