<svg xmlns="http://www.w3.org/2000/svg" fill-rule="evenodd" viewBox="0 0 100 100">
    <path d="m94.043 39.384-.001-23.382H22.625L6.366 32.863v55.989h79.979v-7.693h7.697V61.306h.001V39.384zM23.899 19.002h67.143v19.85l-4.697 5.809V31.968H11.396l12.503-12.966zm59.446 66.85H9.366V34.968h73.979v12.363H66.177c-6.971 0-12.642 5.671-12.642 12.642s5.671 12.642 12.642 12.642h17.168v13.237zM66.177 69.615c-5.316 0-9.642-4.325-9.642-9.642s4.325-9.642 9.642-9.642h19.441l5.425-6.708v17.419l-6.702 8.573H66.177zm24.865 8.543h-4.697v-6.2h-.028l4.726-6.044v12.244z"/>
    <path d="M32.846 23.736h38.018v3H32.846z"/>
</svg>
