<svg xmlns="http://www.w3.org/2000/svg" fill-rule="evenodd" viewBox="0 0 100 100">
    <path d="M33.46 43.065h-9.051a1.5 1.5 0 0 0-1.5 1.5v9.045a1.5 1.5 0 0 0 1.5 1.5h9.051a1.5 1.5 0 0 0 1.5-1.5v-9.045a1.5 1.5 0 0 0-1.5-1.5zm-1.5 9.046h-6.051v-6.045h6.051v6.045zm22.611-9.046h-9.054a1.5 1.5 0 0 0-1.5 1.5v9.045a1.5 1.5 0 0 0 1.5 1.5h9.054a1.5 1.5 0 0 0 1.5-1.5v-9.045a1.5 1.5 0 0 0-1.5-1.5zm-1.5 9.046h-6.054v-6.045h6.054v6.045zM33.46 63.677h-9.051a1.5 1.5 0 0 0-1.5 1.5v9.051a1.5 1.5 0 0 0 1.5 1.5h9.051a1.5 1.5 0 0 0 1.5-1.5v-9.051a1.5 1.5 0 0 0-1.5-1.5zm-1.5 9.051h-6.051v-6.051h6.051v6.051zm22.611-9.051h-9.054a1.5 1.5 0 0 0-1.5 1.5v9.051a1.5 1.5 0 0 0 1.5 1.5h9.054a1.5 1.5 0 0 0 1.5-1.5v-9.051a1.5 1.5 0 0 0-1.5-1.5zm-1.5 9.051h-6.054v-6.051h6.054v6.051zm21.953-9.051h-9.047a1.5 1.5 0 0 0-1.5 1.5v9.051a1.5 1.5 0 0 0 1.5 1.5h9.047a1.5 1.5 0 0 0 1.5-1.5v-9.051a1.5 1.5 0 0 0-1.5-1.5zm-1.5 9.051h-6.047v-6.051h6.047v6.051z"/>
    <path d="M86.04 16.132h-9.111v-1.739a5.61 5.61 0 0 0-5.601-5.604 5.61 5.61 0 0 0-5.604 5.604v1.739H55.592v-1.739a5.61 5.61 0 0 0-5.601-5.604 5.612 5.612 0 0 0-5.607 5.604v1.739H34.255v-1.739a5.608 5.608 0 0 0-5.601-5.604 5.612 5.612 0 0 0-5.607 5.604v1.739h-9.085a1.5 1.5 0 0 0-1.5 1.5v72.08a1.5 1.5 0 0 0 1.5 1.5h72.08a1.5 1.5 0 0 0 1.5-1.5v-72.08a1.502 1.502 0 0 0-1.502-1.5zm-17.317-1.739a2.606 2.606 0 0 1 2.604-2.604 2.605 2.605 0 0 1 2.601 2.604v7.676a2.605 2.605 0 0 1-2.601 2.604 2.607 2.607 0 0 1-2.604-2.604v-7.676zM49.99 11.788a2.605 2.605 0 0 1 2.601 2.604v7.676a2.605 2.605 0 0 1-2.601 2.604 2.608 2.608 0 0 1-2.607-2.604v-4.272c.006-.055.017-.108.017-.165s-.011-.11-.017-.165v-3.074a2.609 2.609 0 0 1 2.607-2.604zm-23.944 2.605a2.608 2.608 0 0 1 2.607-2.604 2.605 2.605 0 0 1 2.601 2.604v7.676a2.605 2.605 0 0 1-2.601 2.604 2.608 2.608 0 0 1-2.607-2.604v-7.676zM84.54 88.211H15.46v-69.08h7.585v2.937a5.612 5.612 0 0 0 5.607 5.604 5.61 5.61 0 0 0 5.601-5.604v-2.937h10.129v2.937a5.612 5.612 0 0 0 5.607 5.604 5.61 5.61 0 0 0 5.601-5.604v-2.937h10.132v2.937a5.61 5.61 0 0 0 5.604 5.604 5.61 5.61 0 0 0 5.601-5.604v-2.937h7.611v69.08h.002z"/>
    <path d="m76.683 38.729-7.654 9.434-3.193-3.048a1.5 1.5 0 0 0-2.072 2.17l4.369 4.171a1.5 1.5 0 0 0 2.201-.14l8.679-10.696a1.5 1.5 0 0 0-2.33-1.891z"/>
</svg>
