<svg xmlns="http://www.w3.org/2000/svg" fill-rule="evenodd" viewBox="0 0 100 100">
    <path d="M42.626 17.42a6.5 6.5 0 1 1 13 0 6.5 6.5 0 0 1-13 0Zm-2.892 1.434H16.36v19.662h65.532V18.854H58.518c-.691 4.566-4.633 8.065-9.392 8.065-4.759 0-8.7-3.499-9.392-8.065Zm18.764-3c-.746-4.502-4.658-7.935-9.372-7.935-4.713 0-8.625 3.433-9.372 7.935H13.36v71.531h71.532v-71.53H58.498ZM16.36 62.858V41.516h18.181v21.342h-18.18Zm0 3v18.527h18.181V65.858h-18.18Zm21.181 0v18.527h21.49V65.858H37.54Zm24.49 18.527V67.493l17.384 16.892H62.03Zm19.861-18.527V82.61L64.653 65.86h17.24Zm0-3H62.03V41.516h19.862v21.342Zm-22.862 0H37.541V41.516h21.49v21.342Z"/>
</svg>
