<svg xmlns="http://www.w3.org/2000/svg" fill-rule="evenodd" viewBox="0 0 100 100">
    <path d="M50 96.4C24.4 96.4 3.6 75.6 3.6 50 3.6 24.4 24.4 3.6 50 3.6S96.4 24.4 96.4 50c0 25.6-20.8 46.4-46.4 46.4zm0-89.8C26.1 6.6 6.6 26.1 6.6 50S26.1 93.4 50 93.4 93.4 73.9 93.4 50 73.9 6.6 50 6.6z"/>
    <path d="M32.6 64.2c-4.8 0-8.6-5.6-8.6-12.8s3.8-12.8 8.6-12.8 8.6 5.6 8.6 12.8-3.7 12.8-8.6 12.8zm0-22.6c-3 0-5.6 4.5-5.6 9.8s2.6 9.8 5.6 9.8c3 0 5.6-4.5 5.6-9.8s-2.5-9.8-5.6-9.8zm18.6 22.6c-4.8 0-8.6-5.6-8.6-12.8s3.8-12.8 8.6-12.8 8.6 5.6 8.6 12.8-3.8 12.8-8.6 12.8zm0-22.6c-3 0-5.6 4.5-5.6 9.8s2.6 9.8 5.6 9.8c3 0 5.6-4.5 5.6-9.8s-2.5-9.8-5.6-9.8zM21.1 64.2c-.8 0-1.5-.7-1.5-1.5v-19l-3.5 2.7c-.7.5-1.6.4-2.1-.3s-.4-1.6.3-2.1l5.9-4.6c.5-.4 1.1-.4 1.6-.2.5.3.8.8.8 1.3v22.1c0 .9-.7 1.6-1.5 1.6zm45.7-.2c-.3 0-.6-.1-.8-.3-.7-.5-.9-1.4-.4-2.1l14.6-21.7c.5-.7 1.4-.9 2.1-.4.7.5.9 1.4.4 2.1L68 63.3c-.3.5-.8.7-1.2.7zm1.7-13.6c-3.3 0-6.1-2.7-6.1-6.1 0-3.3 2.7-6.1 6.1-6.1 3.3 0 6.1 2.7 6.1 6.1 0 3.4-2.8 6.1-6.1 6.1zm0-9.1c-1.7 0-3.1 1.4-3.1 3.1 0 1.7 1.4 3.1 3.1 3.1 1.7 0 3.1-1.4 3.1-3.1 0-1.7-1.4-3.1-3.1-3.1zm12.7 21.6c-3.3 0-6.1-2.7-6.1-6.1 0-3.3 2.7-6.1 6.1-6.1 3.3 0 6.1 2.7 6.1 6.1 0 3.4-2.7 6.1-6.1 6.1zm0-9.1c-1.7 0-3.1 1.4-3.1 3.1 0 1.7 1.4 3.1 3.1 3.1 1.7 0 3.1-1.4 3.1-3.1 0-1.8-1.4-3.1-3.1-3.1z"/>
</svg>
