<svg xmlns="http://www.w3.org/2000/svg" fill-rule="evenodd" viewBox="0 0 100 100">
    <path d="M50.79 48.79A31.74 31.74 0 0 0 19.08 80.5a1.5 1.5 0 0 0 1.5 1.5H81a1.5 1.5 0 0 0 1.5-1.5 31.75 31.75 0 0 0-31.71-31.71ZM22.12 79a28.71 28.71 0 0 1 57.34 0Zm28.14-33.33a18.35 18.35 0 0 0 18.33-18.32c0-.46 0-.9-.07-1.35h7a1.5 1.5 0 0 0 0-3H68a18.31 18.31 0 1 0-17.74 22.67Zm0-33.65A15.35 15.35 0 0 1 65 23H35.57a15.35 15.35 0 0 1 14.69-11ZM35 26h30.52c0 .44.07.89.07 1.35a15.33 15.33 0 0 1-30.65 0q0-.69.06-1.35Z"/>
    <path d="M63.5 61a6.5 6.5 0 1 0 6.5 6.5 6.51 6.51 0 0 0-6.5-6.5Zm0 10a3.5 3.5 0 1 1 3.5-3.5 3.5 3.5 0 0 1-3.5 3.5Z"/>
</svg>
