<?xml version="1.0" encoding="UTF-8"?> <svg xmlns="http://www.w3.org/2000/svg" width="24" height="24" viewBox="0 0 24 24" fill="none"><g clip-path="url(#clip0_2214_2)"><path fill-rule="evenodd" clip-rule="evenodd" d="M24.01 12.005C24.01 18.6352 18.6352 24.01 12.005 24.01C5.37482 24.01 0 18.6352 0 12.005C0 5.37482 5.37482 0 12.005 0C18.6352 0 24.01 5.37482 24.01 12.005ZM12.4248 8.85636C11.2553 9.34615 8.92624 10.3557 5.4277 11.8751C4.86793 12.105 4.56806 12.3249 4.53807 12.5448C4.4938 12.9167 4.95924 13.0611 5.5871 13.2559C5.66812 13.2811 5.75184 13.3071 5.83753 13.3345C6.45727 13.5344 7.27693 13.7643 7.70675 13.7743C8.09659 13.7843 8.52641 13.6244 9.00621 13.2945C12.2748 11.0854 13.9541 9.9659 14.0641 9.9459C14.1441 9.92591 14.244 9.90592 14.314 9.9659C14.384 10.0259 14.384 10.1458 14.374 10.1758C14.3263 10.3745 12.3763 12.1848 11.4889 13.0086C11.2603 13.2208 11.1022 13.3676 11.0653 13.4045C10.9716 13.501 10.8761 13.5923 10.7843 13.6802C10.2106 14.2294 9.78001 14.6415 10.8055 15.3137C11.2716 15.6214 11.6476 15.878 12.0179 16.1306C12.4654 16.4359 12.9045 16.7355 13.4843 17.1129C13.6209 17.2026 13.7517 17.2957 13.8793 17.3864C14.3772 17.7406 14.8266 18.0603 15.3835 18.0125C15.7034 17.9826 16.0333 17.6827 16.2032 16.7831C16.603 14.6639 17.3827 10.0559 17.5626 8.15665C17.5826 7.99672 17.5626 7.7868 17.5427 7.68685C17.5227 7.58689 17.4927 7.45694 17.3727 7.35698C17.2228 7.23703 17.0029 7.21704 16.9029 7.21704C16.4531 7.22704 15.7534 7.46694 12.4248 8.85636Z" fill="#014FA1"></path></g><defs><clipPath id="clip0_2214_2"><rect width="24" height="24" fill="white"></rect></clipPath></defs></svg> 